<svg width="35" height="38" viewBox="0 0 35 38" fill="none" xmlns="http://www.w3.org/2000/svg">
    <path
        d="M3.70683 28.063C3.70683 28.063 2.55661 33.6635 4.79326 35.556C6.19848 36.7451 9.17107 37.1929 15.7455 37.0809C20.4973 37 24.5541 36.933 26.4429 35.2472C29.9939 32.0779 30.8693 29.302 30.8693 29.302C30.8693 29.302 25.1696 32.2517 14.5879 31.2703C5.93724 30.468 3.70683 28.063 3.70683 28.063Z"
        fill="#5F65CA" />
    <path
        d="M3.8418 27.1151L5.85484 5.4422C5.85484 5.4422 6.17886 3.87758 7.89588 2.2905C9.6129 0.70342 11.5743 0.264677 11.9846 0.212117C15.6259 -0.254307 17.4076 0.193949 17.4076 0.193949L15.0635 25.5171C15.0635 25.5171 14.4008 26.5496 12.45 27.1129C7.72043 28.4786 3.8418 27.1151 3.8418 27.1151Z"
        fill="#5F65CA" />
    <path
        d="M0 25.8187C0 25.8187 7.24535 31.4922 21.2617 24.3591C32.1681 18.8088 34.7674 9.89319 34.7674 9.89319C34.7674 9.89319 33.4461 27.4324 30.5546 29.5941C28.2956 31.2831 21.4624 32.1563 14.8186 31.6386C5.27792 30.8952 0 25.8187 0 25.8187Z"
        fill="#2260FF" />
</svg>